<svg xmlns="http://www.w3.org/2000/svg" viewBox="0 0 120 120">
  <!-- Background circle -->
  <circle cx="60" cy="60" r="55" fill="#3b82f6" stroke="#1d4ed8" stroke-width="2"/>
  
  <!-- Neural network nodes -->
  <circle cx="35" cy="35" r="4" fill="white" opacity="0.9"/>
  <circle cx="60" cy="25" r="4" fill="white" opacity="0.9"/>
  <circle cx="85" cy="35" r="4" fill="white" opacity="0.9"/>
  <circle cx="25" cy="60" r="4" fill="white" opacity="0.9"/>
  <circle cx="95" cy="60" r="4" fill="white" opacity="0.9"/>
  <circle cx="35" cy="85" r="4" fill="white" opacity="0.9"/>
  <circle cx="60" cy="95" r="4" fill="white" opacity="0.9"/>
  <circle cx="85" cy="85" r="4" fill="white" opacity="0.9"/>
  
  <!-- Central brain/processing node -->
  <circle cx="60" cy="60" r="8" fill="white"/>
  
  <!-- Connection lines -->
  <line x1="35" y1="35" x2="60" y2="60" stroke="white" stroke-width="1.5" opacity="0.7"/>
  <line x1="60" y1="25" x2="60" y2="60" stroke="white" stroke-width="1.5" opacity="0.7"/>
  <line x1="85" y1="35" x2="60" y2="60" stroke="white" stroke-width="1.5" opacity="0.7"/>
  <line x1="25" y1="60" x2="60" y2="60" stroke="white" stroke-width="1.5" opacity="0.7"/>
  <line x1="95" y1="60" x2="60" y2="60" stroke="white" stroke-width="1.5" opacity="0.7"/>
  <line x1="35" y1="85" x2="60" y2="60" stroke="white" stroke-width="1.5" opacity="0.7"/>
  <line x1="60" y1="95" x2="60" y2="60" stroke="white" stroke-width="1.5" opacity="0.7"/>
  <line x1="85" y1="85" x2="60" y2="60" stroke="white" stroke-width="1.5" opacity="0.7"/>
  
  <!-- Letter S in center -->
  <text x="60" y="68" text-anchor="middle" fill="#3b82f6" font-family="Arial, sans-serif" font-size="16" font-weight="bold">S</text>
</svg>